<?xml version="1.0" encoding="UTF-8" standalone="no"?><!DOCTYPE svg PUBLIC "-//W3C//DTD SVG 1.1//EN" "http://www.w3.org/Graphics/SVG/1.1/DTD/svg11.dtd"><svg width="100%" height="100%" viewBox="0 0 714 229" version="1.1" xmlns="http://www.w3.org/2000/svg" xmlns:xlink="http://www.w3.org/1999/xlink" xml:space="preserve" xmlns:serif="http://www.serif.com/" style="fill-rule:evenodd;clip-rule:evenodd;stroke-linejoin:round;stroke-miterlimit:1.41421;"><g><text x="-4.569px" y="101.244px" style="font-family:'TimesNewRomanPSMT', 'Times New Roman', serif;font-size:144.89px;">C<tspan x="91.428px 131.414px 203.377px 275.339px 347.301px 383.283px 487.22px 551.101px 623.063px 663.05px " y="101.244px 101.244px 101.244px 101.244px 101.244px 101.244px 101.244px 101.244px 101.244px 101.244px ">indy Davis</tspan></text><text x="-0.611px" y="228.282px" style="font-family:'TimesNewRomanPS-BoldMT', 'Times New Roman', serif;font-weight:700;font-size:45.957px;">Sta<tspan x="63.129px " y="228.282px ">t</tspan>e B<tspan x="140.85px " y="228.282px ">o</tspan>ar<tspan x="207.1px " y="228.282px ">d</tspan> of<tspan x="282.312px " y="228.282px "> </tspan>Ed<tspan x="349.906px " y="228.282px ">u</tspan>ca<tspan x="418.732px " y="228.282px ">t</tspan>ion<tspan x="495.221px " y="228.282px "> </tspan>- D<tspan x="566.579px " y="228.282px ">i</tspan>str<tspan x="632.829px " y="228.282px ">i</tspan>ct 9</text><text x="334.194px" y="171.169px" style="font-family:'TimesNewRomanPSMT', 'Times New Roman', serif;font-size:38.188px;">for</text><path d="M305.864,147.691c0,-1.932 -1.569,-3.5 -3.5,-3.5l-297.1,0c-1.932,0 -3.5,1.568 -3.5,3.5l0,7c0,1.932 1.568,3.5 3.5,3.5l297.1,0c1.931,0 3.5,-1.568 3.5,-3.5l0,-7Z" style="fill:#0157ae;"/><path d="M305.864,164.691c0,-1.931 -1.569,-3.5 -3.5,-3.5l-297.1,0c-1.932,0 -3.5,1.569 -3.5,3.5l0,7c0,1.932 1.568,3.5 3.5,3.5l297.1,0c1.931,0 3.5,-1.568 3.5,-3.5l0,-7Z" style="fill:#16a504;"/><path d="M714,147.691c0,-1.932 -1.568,-3.5 -3.5,-3.5l-297.1,0c-1.932,0 -3.5,1.568 -3.5,3.5l0,7c0,1.932 1.568,3.5 3.5,3.5l297.1,0c1.932,0 3.5,-1.568 3.5,-3.5l0,-7Z" style="fill:#0157ae;"/><path d="M714,164.691c0,-1.931 -1.568,-3.5 -3.5,-3.5l-297.1,0c-1.932,0 -3.5,1.569 -3.5,3.5l0,7c0,1.932 1.568,3.5 3.5,3.5l297.1,0c1.932,0 3.5,-1.568 3.5,-3.5l0,-7Z" style="fill:#16a504;"/></g></svg>