<?xml version="1.0" encoding="UTF-8" standalone="no"?><!DOCTYPE svg PUBLIC "-//W3C//DTD SVG 1.1//EN" "http://www.w3.org/Graphics/SVG/1.1/DTD/svg11.dtd"><svg width="100%" height="100%" viewBox="0 0 714 229" version="1.1" xmlns="http://www.w3.org/2000/svg" xmlns:xlink="http://www.w3.org/1999/xlink" xml:space="preserve" xmlns:serif="http://www.serif.com/" style="fill-rule:evenodd;clip-rule:evenodd;stroke-linejoin:round;stroke-miterlimit:1.41421;"><text x="-5.169px" y="100.602px" style="font-family:'TimesNewRomanPSMT', 'Times New Roman', serif;font-size:144.89px;">C<tspan x="90.828px 130.814px 202.777px 274.739px 346.701px 382.683px 486.62px 550.501px 622.463px 662.45px " y="100.602px 100.602px 100.602px 100.602px 100.602px 100.602px 100.602px 100.602px 100.602px 100.602px ">indy Davis</tspan></text><text x="-2.379px" y="227.641px" style="font-family:'TimesNewRomanPS-BoldMT', 'Times New Roman', serif;font-weight:700;font-size:45.957px;">State Board of Education - District 9</text><text x="333.578px" y="170.527px" style="font-family:'TimesNewRomanPSMT', 'Times New Roman', serif;font-size:38.188px;">for</text><path d="M304.1,147.05c0,-1.932 -1.568,-3.5 -3.5,-3.5l-297.1,0c-1.932,0 -3.5,1.568 -3.5,3.5l0,7c0,1.931 1.568,3.5 3.5,3.5l297.1,0c1.932,0 3.5,-1.569 3.5,-3.5l0,-7Z" style="fill:#0157ae;"/><path d="M304.1,164.05c0,-1.932 -1.568,-3.5 -3.5,-3.5l-297.1,0c-1.932,0 -3.5,1.568 -3.5,3.5l0,7c0,1.932 1.568,3.5 3.5,3.5l297.1,0c1.932,0 3.5,-1.568 3.5,-3.5l0,-7Z" style="fill:#d42729;"/><path d="M713.4,147.05c0,-1.932 -1.568,-3.5 -3.5,-3.5l-297.1,0c-1.932,0 -3.5,1.568 -3.5,3.5l0,7c0,1.931 1.568,3.5 3.5,3.5l297.1,0c1.932,0 3.5,-1.569 3.5,-3.5l0,-7Z" style="fill:#0157ae;"/><path d="M713.4,164.05c0,-1.932 -1.568,-3.5 -3.5,-3.5l-297.1,0c-1.932,0 -3.5,1.568 -3.5,3.5l0,7c0,1.932 1.568,3.5 3.5,3.5l297.1,0c1.932,0 3.5,-1.568 3.5,-3.5l0,-7Z" style="fill:#d42729;"/></svg>